# xmcd CD database file
#
# Track frame offsets:
#	150
#	13354
#	28298
#	39613
#	53583
#	66247
#	77583
#	91041
#	103062
#	115354
#	126910
#	138878
#	150567
#	163318
#
# Disc length: 2316 seconds
#
# Revision: 0
# Processed by: cddbd v1.5.2PL0 Copyright (c) Steve Scherf et al.
# Submitted via: CDex 1.70beta2
#
DISCID=bb090a0e
DTITLE=B.B. King - Anthology [CD1]
DYEAR=2007
DGENRE=Blues
TTITLE0=Bad Luck
TTITLE1=B.B.'s Boogie
TTITLE2=B.B.'s Blues
TTITLE3=Blind Love
TTITLE4=Boogie Woogie Women
TTITLE5=Bye Bye Baby
TTITLE6=Crying Won't Help You
TTITLE7=Dark Is The Night (Part 1)
TTITLE8=Dark Is The Night (Part 2)
TTITLE9=Did You Ever Leave A Woman
TTITLE10=Don't You Want A Man LIke Me?
TTITLE11=Early Every Morning
TTITLE12=Every Day (I Have The Blues)
TTITLE13=Fine Looking Woman
EXTD=YEAR: 2007
EXTT0=
EXTT1=
EXTT2=
EXTT3=
EXTT4=
EXTT5=
EXTT6=
EXTT7=
EXTT8=
EXTT9=
EXTT10=
EXTT11=
EXTT12=
EXTT13=
PLAYORDER=
